<?xml version="1.0" encoding="UTF-8"?>
<svg xmlns="http://www.w3.org/2000/svg" xmlns:xlink="http://www.w3.org/1999/xlink" width="312pt" height="60pt" viewBox="0 0 312 60" version="1.1">
<g id="surface21">
<path style=" stroke:none;fill-rule:nonzero;fill:rgb(100%,100%,100%);fill-opacity:1;" d="M 4.171875 13.183594 L 4.171875 10.546875 L 30.761719 10.546875 L 30.761719 60.644531 L 28.125 60.644531 L 28.125 13.183594 L 25.488281 13.183594 L 25.488281 60.644531 L 22.851562 60.644531 L 22.851562 13.183594 L 20.214844 13.183594 L 20.214844 60.644531 L 17.578125 60.644531 L 17.578125 13.183594 L 14.941406 13.183594 L 14.941406 60.644531 L 12.304688 60.644531 L 12.304688 13.183594 Z M 4.171875 7.910156 L 4.171875 5.273438 L 30.761719 5.273438 L 30.761719 7.910156 Z M 4.171875 2.636719 L 4.171875 0 L 30.761719 0 L 30.761719 2.636719 Z M 63.675781 42.847656 L 64.738281 40.210938 L 73.746094 40.210938 L 74.808594 42.847656 Z M 61.625 48.121094 L 62.648438 45.484375 L 75.796875 45.484375 L 76.933594 48.121094 Z M 59.574219 53.394531 L 60.601562 50.757812 L 77.882812 50.757812 L 78.984375 53.394531 Z M 38.152344 60.644531 L 35.292969 60.644531 L 59.28125 0 L 62.136719 0 L 86.085938 60.644531 L 83.269531 60.644531 L 60.710938 3.550781 Z M 61.039062 9.816406 L 62.539062 13.183594 L 43.789062 60.644531 L 40.96875 60.644531 Z M 63.96875 16.773438 L 65.359375 20.398438 L 49.503906 60.644531 L 46.648438 60.644531 Z M 66.75 24.023438 L 68.144531 27.722656 L 55.144531 60.644531 L 52.324219 60.644531 Z M 103.117188 60.644531 L 100.261719 60.644531 L 76.308594 0 L 79.128906 0 Z M 73.453125 0 L 97.441406 60.644531 L 94.621094 60.644531 L 70.632812 0 Z M 67.777344 0 L 91.765625 60.644531 L 88.90625 60.644531 L 64.957031 0 Z M 123.3125 7.910156 L 125.949219 7.910156 L 125.949219 60.644531 L 123.3125 60.644531 Z M 118.039062 7.910156 L 120.675781 7.910156 L 120.675781 60.644531 L 118.039062 60.644531 Z M 112.765625 7.910156 L 115.402344 7.910156 L 115.402344 60.644531 L 112.765625 60.644531 Z M 107.492188 7.910156 L 110.128906 7.910156 L 110.128906 60.644531 L 107.492188 60.644531 Z M 166.183594 27.683594 L 166.183594 60.644531 L 163.546875 60.644531 L 163.546875 27.683594 C 163.542969 26.980469 163.429688 26.375 163.199219 25.875 C 162.964844 25.375 162.664062 24.992188 162.300781 24.71875 C 161.929688 24.453125 161.445312 24.238281 160.851562 24.078125 C 160.25 23.921875 159.671875 23.824219 159.113281 23.785156 C 158.550781 23.75 157.855469 23.730469 157.027344 23.730469 C 156.195312 23.730469 155.5 23.75 154.9375 23.785156 C 154.375 23.824219 153.792969 23.921875 153.199219 24.078125 C 152.597656 24.238281 152.117188 24.453125 151.753906 24.71875 C 151.382812 24.992188 151.082031 25.375 150.855469 25.875 C 150.621094 26.375 150.507812 26.980469 150.507812 27.683594 L 150.507812 60.644531 L 147.871094 60.644531 L 147.871094 27.683594 C 147.871094 23.292969 150.921875 21.09375 157.027344 21.09375 C 163.128906 21.09375 166.179688 23.292969 166.183594 27.683594 Z M 171.457031 27.683594 L 171.457031 60.644531 L 168.820312 60.644531 L 168.820312 27.683594 C 168.816406 24.589844 167.726562 22.277344 165.542969 20.746094 C 163.355469 19.222656 160.515625 18.457031 157.027344 18.457031 C 153.53125 18.457031 150.691406 19.222656 148.511719 20.746094 C 146.324219 22.277344 145.234375 24.589844 145.234375 27.683594 L 145.234375 60.644531 L 142.597656 60.644531 L 142.597656 27.683594 C 142.597656 25.125 143.253906 22.925781 144.574219 21.09375 C 145.890625 19.265625 147.621094 17.929688 149.757812 17.085938 C 151.890625 16.242188 154.3125 15.820312 157.027344 15.820312 C 159.734375 15.820312 162.15625 16.242188 164.296875 17.085938 C 166.429688 17.929688 168.15625 19.265625 169.476562 21.09375 C 170.792969 22.925781 171.453125 25.125 171.457031 27.683594 Z M 176.730469 27.683594 L 176.730469 60.644531 L 174.09375 60.644531 L 174.09375 27.683594 C 174.089844 25.394531 173.644531 23.320312 172.757812 21.460938 C 171.863281 19.609375 170.636719 18.082031 169.078125 16.882812 C 167.511719 15.691406 165.707031 14.777344 163.65625 14.136719 C 161.601562 13.503906 159.390625 13.183594 157.027344 13.183594 C 154.65625 13.183594 152.445312 13.503906 150.398438 14.136719 C 148.34375 14.777344 146.539062 15.691406 144.980469 16.882812 C 143.414062 18.082031 142.1875 19.609375 141.296875 21.460938 C 140.40625 23.320312 139.960938 25.394531 139.960938 27.683594 L 139.960938 60.644531 L 137.324219 60.644531 L 137.324219 27.683594 C 137.324219 25.027344 137.839844 22.609375 138.878906 20.4375 C 139.914062 18.265625 141.324219 16.464844 143.109375 15.035156 C 144.890625 13.605469 146.980469 12.5 149.371094 11.71875 C 151.761719 10.9375 154.3125 10.546875 157.027344 10.546875 C 159.734375 10.546875 162.285156 10.9375 164.679688 11.71875 C 167.070312 12.5 169.15625 13.605469 170.941406 15.035156 C 172.722656 16.464844 174.132812 18.265625 175.171875 20.4375 C 176.207031 22.609375 176.726562 25.027344 176.730469 27.683594 Z M 182.003906 60.644531 L 179.367188 60.644531 L 179.367188 27.683594 C 179.363281 25.027344 178.773438 22.476562 177.589844 20.035156 C 176.402344 17.59375 174.808594 15.488281 172.808594 13.714844 C 170.808594 11.949219 168.425781 10.539062 165.667969 9.484375 C 162.90625 8.4375 160.027344 7.910156 157.027344 7.910156 C 152.898438 7.910156 149.15625 8.6875 145.804688 10.238281 C 142.445312 11.789062 139.753906 14.082031 137.726562 17.121094 C 135.699219 20.160156 134.6875 23.683594 134.6875 27.683594 L 134.6875 60.644531 L 132.050781 60.644531 L 132.050781 27.683594 C 132.050781 24.320312 132.707031 21.21875 134.027344 18.386719 C 135.34375 15.554688 137.132812 13.1875 139.394531 11.28125 C 141.648438 9.378906 144.296875 7.902344 147.339844 6.847656 C 150.378906 5.800781 153.609375 5.273438 157.027344 5.273438 C 163.078125 5.273438 168.328125 6.800781 172.773438 9.851562 C 177.21875 6.800781 182.46875 5.273438 188.523438 5.273438 C 191.9375 5.273438 195.164062 5.800781 198.207031 6.847656 C 201.242188 7.902344 203.890625 9.378906 206.152344 11.28125 C 208.410156 13.1875 210.199219 15.554688 211.519531 18.386719 C 212.835938 21.21875 213.496094 24.320312 213.496094 27.683594 L 213.496094 60.644531 L 210.859375 60.644531 L 210.859375 27.683594 C 210.859375 23.707031 209.84375 20.195312 207.820312 17.15625 C 205.789062 14.117188 203.097656 11.816406 199.746094 10.253906 C 196.386719 8.691406 192.648438 7.910156 188.523438 7.910156 C 183.34375 7.910156 178.824219 9.132812 174.972656 11.574219 C 175.527344 12.0625 176.152344 12.695312 176.839844 13.476562 C 180.183594 11.523438 184.078125 10.546875 188.523438 10.546875 C 191.230469 10.546875 193.78125 10.9375 196.175781 11.71875 C 198.566406 12.5 200.652344 13.605469 202.4375 15.035156 C 204.214844 16.464844 205.625 18.265625 206.664062 20.4375 C 207.703125 22.609375 208.222656 25.027344 208.222656 27.683594 L 208.222656 60.644531 L 205.585938 60.644531 L 205.585938 27.683594 C 205.585938 25.394531 205.140625 23.320312 204.25 21.460938 C 203.359375 19.609375 202.132812 18.082031 200.570312 16.882812 C 199.007812 15.691406 197.199219 14.777344 195.148438 14.136719 C 193.097656 13.503906 190.890625 13.183594 188.523438 13.183594 C 184.640625 13.183594 181.28125 13.976562 178.453125 15.5625 C 178.886719 16.25 179.328125 17.007812 179.769531 17.835938 C 182.160156 16.492188 185.078125 15.820312 188.523438 15.820312 C 191.230469 15.820312 193.652344 16.242188 195.789062 17.085938 C 197.925781 17.929688 199.652344 19.265625 200.972656 21.09375 C 202.289062 22.925781 202.949219 25.125 202.949219 27.683594 L 202.949219 60.644531 L 200.3125 60.644531 L 200.3125 27.683594 C 200.3125 24.589844 199.21875 22.277344 197.035156 20.746094 C 194.847656 19.222656 192.011719 18.457031 188.523438 18.457031 C 185.347656 18.457031 182.769531 19.042969 180.796875 20.214844 C 181.109375 21.144531 181.355469 22.023438 181.527344 22.851562 C 183.066406 21.679688 185.398438 21.09375 188.523438 21.09375 C 194.625 21.09375 197.675781 23.292969 197.675781 27.683594 L 197.675781 60.644531 L 195.039062 60.644531 L 195.039062 27.683594 C 195.039062 26.980469 194.921875 26.375 194.691406 25.875 C 194.457031 25.375 194.15625 24.992188 193.792969 24.71875 C 193.425781 24.453125 192.945312 24.238281 192.347656 24.078125 C 191.75 23.921875 191.171875 23.824219 190.609375 23.785156 C 190.046875 23.75 189.347656 23.730469 188.519531 23.730469 C 187.6875 23.730469 186.992188 23.75 186.433594 23.785156 C 185.871094 23.824219 185.292969 23.921875 184.695312 24.078125 C 184.09375 24.238281 183.609375 24.453125 183.246094 24.71875 C 182.878906 24.992188 182.582031 25.375 182.351562 25.875 C 182.117188 26.375 182 26.980469 182.003906 27.683594 Z M 233.675781 60.644531 L 231.039062 60.644531 L 231.039062 7.910156 L 233.675781 7.910156 Z M 228.402344 60.644531 L 225.765625 60.644531 L 225.765625 7.910156 L 228.402344 7.910156 Z M 223.128906 60.644531 L 220.492188 60.644531 L 220.492188 7.910156 L 223.128906 7.910156 Z M 238.949219 47.460938 L 264.179688 47.460938 L 264.179688 50.097656 L 238.949219 50.097656 L 238.949219 52.734375 L 264.179688 52.734375 L 264.179688 55.371094 L 238.949219 55.371094 L 238.949219 58.007812 L 264.179688 58.007812 L 264.179688 60.644531 L 236.3125 60.644531 L 236.3125 7.910156 L 264.179688 7.910156 L 264.179688 10.546875 L 238.949219 10.546875 L 238.949219 13.183594 L 264.179688 13.183594 L 264.179688 15.820312 L 238.949219 15.820312 L 238.949219 18.457031 L 264.179688 18.457031 L 264.179688 21.09375 L 238.949219 21.09375 L 238.949219 27.648438 L 262.714844 27.648438 L 262.714844 30.285156 L 238.949219 30.285156 L 238.949219 32.921875 L 262.714844 32.921875 L 262.714844 35.558594 L 238.949219 35.558594 L 238.949219 38.195312 L 262.714844 38.195312 L 262.714844 40.832031 L 238.949219 40.832031 Z M 310.078125 0 L 312.824219 0 L 297.882812 60.644531 L 295.136719 60.644531 Z M 289.5 10.546875 L 288.875 13.183594 L 269.171875 13.183594 L 269.171875 10.546875 Z M 290.742188 5.273438 L 290.121094 7.910156 L 269.171875 7.910156 L 269.171875 5.273438 Z M 291.914062 0 L 291.402344 2.636719 L 269.171875 2.636719 L 269.171875 0 Z M 293.78125 0 L 296.492188 0 L 281.550781 60.644531 L 278.839844 60.644531 Z M 299.203125 0 L 301.949219 0 L 287.007812 60.644531 L 284.261719 60.644531 Z M 304.660156 0 L 307.367188 0 L 292.429688 60.644531 L 289.71875 60.644531 Z M 2.085938 -26.355469 "/>
</g>
</svg>
