<?xml version="1.0" encoding="utf-8"?>
<!-- Generator: Adobe Illustrator 24.2.1, SVG Export Plug-In . SVG Version: 6.00 Build 0)  -->
<svg version="1.1" id="Layer_1" xmlns="http://www.w3.org/2000/svg" xmlns:xlink="http://www.w3.org/1999/xlink" x="0px" y="0px"
	 viewBox="0 0 40.3 62.5" style="enable-background:new 0 0 40.3 62.5;" xml:space="preserve">
<g>
	<g>
		<g>
			<path d="M23.8,62.5h-7.2c-0.2,0-0.4-0.1-0.5-0.1L5.8,56c-0.3-0.2-0.5-0.5-0.5-0.8V28.7c0-0.3,0.2-0.7,0.5-0.8l10.3-6.4
				c0.2-0.1,0.3-0.1,0.5-0.1h7.2c0.2,0,0.4,0.1,0.5,0.1l10.3,6.4c0.3,0.2,0.5,0.5,0.5,0.8v26.5c0,0.3-0.2,0.7-0.5,0.8l-10.3,6.4
				C24.1,62.5,24,62.5,23.8,62.5z M16.9,60.6h6.6l9.6-6V29.2l-9.6-6h-6.6l-9.6,6v25.4L16.9,60.6z"/>
		</g>
		<g>
			<path d="M34.1,56.1c-0.4,0-0.7-0.2-0.9-0.5l-13-24.1l-13,24.1c-0.3,0.5-0.9,0.7-1.3,0.4c-0.5-0.3-0.7-0.9-0.4-1.3L19.3,29
				c0.2-0.3,0.5-0.5,0.9-0.5c0.4,0,0.7,0.2,0.9,0.5l13.9,25.7c0.3,0.5,0.1,1.1-0.4,1.3C34.4,56.1,34.2,56.1,34.1,56.1z"/>
		</g>
		<g>
			<path d="M20.2,30.4c-0.4,0-0.7-0.2-0.9-0.5l-3.6-7.1c-0.2-0.3-0.1-0.7,0-1c0.2-0.3,0.5-0.5,0.8-0.5h7.2c0.3,0,0.7,0.2,0.8,0.5
				c0.2,0.3,0.2,0.7,0,1L21,29.9C20.9,30.2,20.5,30.4,20.2,30.4z M18.2,23.3l2,4l2-4H18.2z"/>
		</g>
		<g>
			<path d="M20.2,55.9c-0.4,0-0.7-0.2-0.9-0.5L5.4,29.2c-0.3-0.5-0.1-1.1,0.4-1.3c0.5-0.3,1.1-0.1,1.3,0.4l13,24.5l13-24.5
				c0.3-0.5,0.9-0.7,1.3-0.4c0.5,0.3,0.7,0.8,0.4,1.3L21,55.3C20.9,55.7,20.5,55.9,20.2,55.9z"/>
		</g>
		<g>
			<path d="M23.8,62.5C23.8,62.5,23.8,62.5,23.8,62.5h-7.2c-0.3,0-0.7-0.2-0.8-0.5c-0.2-0.3-0.2-0.7,0-1l3.6-6.7
				c0.2-0.3,0.5-0.5,0.9-0.5c0.4,0,0.7,0.2,0.9,0.5l3.5,6.6c0.1,0.2,0.2,0.4,0.2,0.6C24.8,62.1,24.3,62.5,23.8,62.5z M18.2,60.6h3.9
				l-2-3.6L18.2,60.6z"/>
		</g>
		<g>
			<path d="M5.8,24.4c-0.3,0-0.7-0.2-0.8-0.5c-0.3-0.5-0.1-1.1,0.3-1.3l8.7-5.3c0.2-0.1,0.3-0.1,0.5-0.1h5.6c0.5,0,1,0.4,1,1
				c0,0.5-0.4,1-1,1h-5.3l-8.5,5.1C6.2,24.4,6,24.4,5.8,24.4z"/>
		</g>
		<g>
			<path d="M34.5,24.4c-0.2,0-0.3,0-0.5-0.1l-8.5-5.1h-5.3c-0.5,0-1-0.4-1-1c0-0.5,0.4-1,1-1h5.6c0.2,0,0.4,0,0.5,0.1l8.7,5.3
				c0.5,0.3,0.6,0.9,0.3,1.3C35.2,24.2,34.8,24.4,34.5,24.4z"/>
		</g>
		<g>
			<path d="M20.2,14.6h-5.6c-0.3,0-0.6-0.2-0.8-0.4s-0.2-0.6-0.1-0.9l5.6-12.6c0.2-0.5,0.8-0.7,1.3-0.5c0.5,0.2,0.7,0.8,0.5,1.3
				l-5,11.2h4.1c0.5,0,1,0.4,1,1C21.2,14.1,20.7,14.6,20.2,14.6z"/>
		</g>
		<g>
			<path d="M25.7,14.6h-5.6c-0.5,0-1-0.4-1-1c0-0.5,0.4-1,1-1h4.1l-5-11.2c-0.2-0.5,0-1.1,0.5-1.3c0.5-0.2,1.1,0,1.3,0.5l5.6,12.6
				c0.1,0.3,0.1,0.7-0.1,0.9C26.4,14.4,26.1,14.6,25.7,14.6z"/>
		</g>
		<g>
			<path d="M4.2,19.8c-0.3,0-0.7-0.2-0.8-0.5l-3.3-5.6c-0.2-0.3-0.2-0.7,0-1.1c0.2-0.3,0.6-0.5,1-0.4L11.3,14
				c0.4,0.1,0.7,0.4,0.8,0.8c0.1,0.4-0.1,0.8-0.5,1l-6.8,3.8C4.6,19.7,4.4,19.8,4.2,19.8z M2.9,14.6l1.7,2.9l3.6-2L2.9,14.6z"/>
		</g>
		<g>
			<path d="M36.1,19.8c-0.2,0-0.3,0-0.5-0.1l-6.8-3.8c-0.4-0.2-0.6-0.6-0.5-1s0.4-0.7,0.8-0.8l10.1-1.8c0.4-0.1,0.8,0.1,1,0.4
				c0.2,0.3,0.2,0.7,0,1.1l-3.3,5.6C36.8,19.6,36.4,19.8,36.1,19.8z M32.2,15.5l3.6,2l1.7-2.9L32.2,15.5z"/>
		</g>
	</g>
</g>
</svg>
